{
  "accessors": [
    {
      "bufferView": 3,
      "componentType": 5126,
      "count": 1764,
      "max": [
        0.12169221043586731,
        0.16180527210235596,
        0.020603066310286522
      ],
      "min": [
        -0.11671096086502075,
        -0.1532735377550125,
        -0.020603066310286522
      ],
      "type": "VEC3"
    },
    {
      "bufferView": 3,
      "byteOffset": 21168,
      "componentType": 5126,
      "count": 1764,
      "max": [
        0.9835196137428284,
        1.0,
        1.0
      ],
      "min": [
        -1.0,
        -0.8246992826461792,
        -1.0
      ],
      "type": "VEC3"
    },
    {
      "bufferView": 4,
      "componentType": 5126,
      "count": 1764,
      "max": [
        1.0,
        0.8054487705230713,
        1.0,
        1.0
      ],
      "min": [
        -1.0,
        -0.8051541447639465,
        -1.0,
        -1.0
      ],
      "type": "VEC4"
    },
    {
      "bufferView": 2,
      "componentType": 5126,
      "count": 1764,
      "max": [
        1.9375,
        0.62744140625
      ],
      "min": [
        0.0007367134094238281,
        0.001953125
      ],
      "type": "VEC2"
    },
    {
      "bufferView": 2,
      "byteOffset": 14112,
      "componentType": 5126,
      "count": 1764,
      "max": [
        0.99169921875,
        0.9921875
      ],
      "min": [
        0.0078125,
        0.0166015625
      ],
      "type": "VEC2"
    },
    {
      "bufferView": 1,
      "componentType": 5125,
      "count": 1770,
      "type": "SCALAR"
    },
    {
      "bufferView": 3,
      "byteOffset": 42336,
      "componentType": 5126,
      "count": 18227,
      "max": [
        0.8923692107200623,
        0.16932891309261322,
        0.046359721571207047
      ],
      "min": [
        -0.3850629925727844,
        -0.1380070596933365,
        -0.061998747289180756
      ],
      "type": "VEC3"
    },
    {
      "bufferView": 3,
      "byteOffset": 261060,
      "componentType": 5126,
      "count": 18227,
      "max": [
        1.0,
        1.0,
        1.0
      ],
      "min": [
        -1.0,
        -1.0,
        -1.0
      ],
      "type": "VEC3"
    },
    {
      "bufferView": 4,
      "byteOffset": 28224,
      "componentType": 5126,
      "count": 18227,
      "max": [
        1.0,
        1.0,
        1.0,
        1.0
      ],
      "min": [
        -1.0,
        -1.0,
        -1.0,
        -1.0
      ],
      "type": "VEC4"
    },
    {
      "bufferView": 2,
      "byteOffset": 28224,
      "componentType": 5126,
      "count": 18227,
      "max": [
        1.9970703125,
        0.9969730377197266
      ],
      "min": [
        0.001953125,
        0.001953125
      ],
      "type": "VEC2"
    },
    {
      "bufferView": 1,
      "byteOffset": 7080,
      "componentType": 5125,
      "count": 19206,
      "type": "SCALAR"
    },
    {
      "bufferView": 3,
      "byteOffset": 479784,
      "componentType": 5126,
      "count": 826,
      "max": [
        0.6999763250350952,
        0.13718919456005096,
        0.02343144826591015
      ],
      "min": [
        0.0016089454293251038,
        0.10027255862951279,
        -0.02343144826591015
      ],
      "type": "VEC3"
    },
    {
      "bufferView": 3,
      "byteOffset": 489696,
      "componentType": 5126,
      "count": 826,
      "max": [
        0.9999861121177673,
        1.0,
        0.9688912034034729
      ],
      "min": [
        -0.992950439453125,
        -1.0,
        -0.969123899936676
      ],
      "type": "VEC3"
    },
    {
      "bufferView": 2,
      "byteOffset": 174040,
      "componentType": 5126,
      "count": 826,
      "max": [
        2.923828125,
        2.271484375
      ],
      "min": [
        -0.68212890625,
        -0.6416015625
      ],
      "type": "VEC2"
    },
    {
      "bufferView": 1,
      "byteOffset": 83904,
      "componentType": 5125,
      "count": 828,
      "type": "SCALAR"
    },
    {
      "bufferView": 3,
      "byteOffset": 499608,
      "componentType": 5126,
      "count": 2640,
      "max": [
        0.6818338632583618,
        0.13441669940948486,
        0.008062443695962429
      ],
      "min": [
        0.025931742042303085,
        0.10348911583423615,
        -0.008062411099672318
      ],
      "type": "VEC3"
    },
    {
      "bufferView": 3,
      "byteOffset": 531288,
      "componentType": 5126,
      "count": 2640,
      "max": [
        0.995365560054779,
        0.9999990463256836,
        1.0
      ],
      "min": [
        -0.9941816926002502,
        -1.0,
        -1.0
      ],
      "type": "VEC3"
    },
    {
      "bufferView": 4,
      "byteOffset": 319856,
      "componentType": 5126,
      "count": 2640,
      "max": [
        1.0,
        0.9909574389457703,
        1.0,
        1.0
      ],
      "min": [
        -1.0,
        -0.9953678250312805,
        -1.0,
        -1.0
      ],
      "type": "VEC4"
    },
    {
      "bufferView": 2,
      "byteOffset": 180648,
      "componentType": 5126,
      "count": 2640,
      "max": [
        1.041015625,
        0.999969482421875
      ],
      "min": [
        3.0517578125e-05,
        0.0
      ],
      "type": "VEC2"
    },
    {
      "bufferView": 1,
      "byteOffset": 87216,
      "componentType": 5125,
      "count": 2640,
      "type": "SCALAR"
    },
    {
      "bufferView": 3,
      "byteOffset": 562968,
      "componentType": 5126,
      "count": 1416,
      "max": [
        0.19616471230983734,
        0.12896685302257538,
        0.03647194430232048
      ],
      "min": [
        -0.35506758093833923,
        -0.11921785026788712,
        -0.03647194430232048
      ],
      "type": "VEC3"
    },
    {
      "bufferView": 3,
      "byteOffset": 579960,
      "componentType": 5126,
      "count": 1416,
      "max": [
        0.9997671246528625,
        1.0,
        1.0
      ],
      "min": [
        -0.9978103041648865,
        -0.9619414210319519,
        -1.0
      ],
      "type": "VEC3"
    },
    {
      "bufferView": 2,
      "byteOffset": 201768,
      "componentType": 5126,
      "count": 1416,
      "max": [
        1.0,
        0.999969482421875
      ],
      "min": [
        3.0517578125e-05,
        0.0
      ],
      "type": "VEC2"
    },
    {
      "bufferView": 1,
      "byteOffset": 97776,
      "componentType": 5125,
      "count": 1452,
      "type": "SCALAR"
    },
    {
      "bufferView": 5,
      "componentType": 5126,
      "count": 22,
      "max": [
        1.0000001192092896,
        0.9396926760673523,
        1.0,
        0.0,
        0.4698464572429657,
        1.0000001192092896,
        1.0000001192092896,
        0.0,
        0.813797652721405,
        1.1920930376163597e-07,
        1.0,
        0.0,
        0.6197602152824402,
        0.001964724622666836,
        0.2028244435787201,
        1.0
      ],
      "min": [
        -1.7917651007337554e-07,
        -2.2997589610440627e-07,
        -1.6292067073209182e-07,
        0.0,
        0.0,
        -0.1710101217031479,
        0.0,
        0.0,
        -1.0,
        -1.000000238418579,
        -0.5000000596046448,
        0.0,
        -0.8946225047111511,
        -0.22032390534877777,
        -0.5941095948219299,
        1.0
      ],
      "type": "MAT4"
    },
    {
      "bufferView": 0,
      "componentType": 5123,
      "count": 18227,
      "type": "VEC4"
    },
    {
      "bufferView": 4,
      "byteOffset": 362096,
      "componentType": 5126,
      "count": 18227,
      "max": [
        1.0,
        0.0,
        0.0,
        0.0
      ],
      "min": [
        1.0,
        0.0,
        0.0,
        0.0
      ],
      "type": "VEC4"
    },
    {
      "bufferView": 0,
      "byteOffset": 145816,
      "componentType": 5123,
      "count": 826,
      "type": "VEC4"
    },
    {
      "bufferView": 4,
      "byteOffset": 653728,
      "componentType": 5126,
      "count": 826,
      "max": [
        1.0,
        0.0,
        0.0,
        0.0
      ],
      "min": [
        1.0,
        0.0,
        0.0,
        0.0
      ],
      "type": "VEC4"
    },
    {
      "bufferView": 0,
      "byteOffset": 152424,
      "componentType": 5123,
      "count": 2640,
      "type": "VEC4"
    },
    {
      "bufferView": 4,
      "byteOffset": 666944,
      "componentType": 5126,
      "count": 2640,
      "max": [
        1.0,
        0.0,
        0.0,
        0.0
      ],
      "min": [
        1.0,
        0.0,
        0.0,
        0.0
      ],
      "type": "VEC4"
    },
    {
      "bufferView": 0,
      "byteOffset": 173544,
      "componentType": 5123,
      "count": 1416,
      "type": "VEC4"
    },
    {
      "bufferView": 4,
      "byteOffset": 709184,
      "componentType": 5126,
      "count": 1416,
      "max": [
        1.0,
        0.0,
        0.0,
        0.0
      ],
      "min": [
        1.0,
        0.0,
        0.0,
        0.0
      ],
      "type": "VEC4"
    }
  ],
  "asset": {
    "extras": {
      "author": "Mira (https://sketchfab.com/almborziloff)",
      "license": "CC-BY-4.0 (http://creativecommons.org/licenses/by/4.0/)",
      "source": "https://sketchfab.com/3d-models/prime-vandal-a660de25aafd414195d9dfdb334db92e",
      "title": "Prime Vandal"
    },
    "generator": "Sketchfab-15.30.0",
    "version": "2.0"
  },
  "bufferViews": [
    {
      "buffer": 0,
      "byteLength": 184872,
      "byteStride": 8,
      "name": "shortBufferViews",
      "target": 34962
    },
    {
      "buffer": 0,
      "byteLength": 103584,
      "byteOffset": 184872,
      "name": "floatBufferViews",
      "target": 34963
    },
    {
      "buffer": 0,
      "byteLength": 213096,
      "byteOffset": 288456,
      "byteStride": 8,
      "name": "floatBufferViews",
      "target": 34962
    },
    {
      "buffer": 0,
      "byteLength": 596952,
      "byteOffset": 501552,
      "byteStride": 12,
      "name": "floatBufferViews",
      "target": 34962
    },
    {
      "buffer": 0,
      "byteLength": 731840,
      "byteOffset": 1098504,
      "byteStride": 16,
      "name": "floatBufferViews",
      "target": 34962
    },
    {
      "buffer": 0,
      "byteLength": 1408,
      "byteOffset": 1830344,
      "name": "floatBufferViews"
    }
  ],
  "buffers": [
    {
      "byteLength": 1831752,
      "uri": "scene.bin"
    }
  ],
  "extensionsUsed": [
    "KHR_materials_specular"
  ],
  "images": [
    {
      "uri": "textures/AK_Hypebeast_MI_baseColor.png"
    },
    {
      "uri": "textures/AK_Hypebeast_MI_metallicRoughness.png"
    },
    {
      "uri": "textures/AK_Hypebeast_MI_normal.png"
    },
    {
      "uri": "textures/AK_Hypebeast_MI_specularf0.png"
    }
  ],
  "materials": [
    {
      "doubleSided": true,
      "emissiveTexture": {
        "index": 0
      },
      "extensions": {
        "KHR_materials_specular": {
          "specularColorFactor": [
            1.0,
            1.0,
            1.0
          ],
          "specularFactor": 0.0,
          "specularTexture": {
            "index": 3
          }
        }
      },
      "name": "AK_Hypebeast_MI",
      "normalTexture": {
        "index": 2
      },
      "pbrMetallicRoughness": {
        "baseColorTexture": {
          "index": 0
        },
        "metallicRoughnessTexture": {
          "index": 1
        },
        "roughnessFactor": 0.0
      }
    },
    {
      "doubleSided": true,
      "name": "Hypebeast_Glass_MI",
      "pbrMetallicRoughness": {
        "metallicFactor": 0.0,
        "roughnessFactor": 0.290909
      }
    },
    {
      "doubleSided": true,
      "extensions": {
        "KHR_materials_specular": {
          "specularColorFactor": [
            1.0,
            1.0,
            1.0
          ],
          "specularFactor": 0.0,
          "specularTexture": {
            "index": 3
          }
        }
      },
      "name": "Hypebeast_Emissive_Inner_MI",
      "normalTexture": {
        "index": 2
      },
      "pbrMetallicRoughness": {
        "baseColorTexture": {
          "index": 0
        },
        "metallicFactor": 0.4490990504742546,
        "metallicRoughnessTexture": {
          "index": 1
        },
        "roughnessFactor": 0.47195182312819406
      }
    },
    {
      "doubleSided": true,
      "name": "Hypebeast_Emissive_MI"
    }
  ],
  "meshes": [
    {
      "name": "Object_0",
      "primitives": [
        {
          "attributes": {
            "NORMAL": 1,
            "POSITION": 0,
            "TANGENT": 2,
            "TEXCOORD_0": 3,
            "TEXCOORD_1": 4
          },
          "indices": 5,
          "material": 0,
          "mode": 4
        }
      ]
    },
    {
      "name": "Object_1",
      "primitives": [
        {
          "attributes": {
            "JOINTS_0": 25,
            "NORMAL": 7,
            "POSITION": 6,
            "TANGENT": 8,
            "TEXCOORD_0": 9,
            "WEIGHTS_0": 26
          },
          "indices": 10,
          "material": 0,
          "mode": 4
        }
      ]
    },
    {
      "name": "Object_2",
      "primitives": [
        {
          "attributes": {
            "JOINTS_0": 27,
            "NORMAL": 12,
            "POSITION": 11,
            "TEXCOORD_0": 13,
            "WEIGHTS_0": 28
          },
          "indices": 14,
          "material": 1,
          "mode": 4
        }
      ]
    },
    {
      "name": "Object_3",
      "primitives": [
        {
          "attributes": {
            "JOINTS_0": 29,
            "NORMAL": 16,
            "POSITION": 15,
            "TANGENT": 17,
            "TEXCOORD_0": 18,
            "WEIGHTS_0": 30
          },
          "indices": 19,
          "material": 2,
          "mode": 4
        }
      ]
    },
    {
      "name": "Object_4",
      "primitives": [
        {
          "attributes": {
            "JOINTS_0": 31,
            "NORMAL": 21,
            "POSITION": 20,
            "TEXCOORD_0": 22,
            "WEIGHTS_0": 32
          },
          "indices": 23,
          "material": 3,
          "mode": 4
        }
      ]
    }
  ],
  "nodes": [
    {
      "children": [
        1
      ],
      "matrix": [
        1.0,
        0.0,
        0.0,
        0.0,
        0.0,
        2.220446049250313e-16,
        -1.0,
        0.0,
        0.0,
        1.0,
        2.220446049250313e-16,
        0.0,
        0.0,
        0.0,
        0.0,
        1.0
      ],
      "name": "Sketchfab_model"
    },
    {
      "children": [
        2
      ],
      "name": "root"
    },
    {
      "children": [
        3,
        5
      ],
      "matrix": [
        1.0,
        0.0,
        0.0,
        0.0,
        0.0,
        2.220446049250313e-16,
        1.0,
        0.0,
        0.0,
        -1.0,
        2.220446049250313e-16,
        0.0,
        0.0,
        0.0,
        0.0,
        1.0
      ],
      "name": "GLTF_SceneRootNode"
    },
    {
      "children": [
        4
      ],
      "matrix": [
        1.0,
        0.0,
        0.0,
        0.0,
        0.0,
        1.0,
        0.0,
        0.0,
        0.0,
        0.0,
        1.0,
        0.0,
        0.29406943917274475,
        -0.06982237100601196,
        0.0,
        1.0
      ],
      "name": "GN_AK_Magazine_HypeBeast_Staticmesh.mo_2"
    },
    {
      "mesh": 0,
      "name": "Object_4"
    },
    {
      "children": [
        6
      ],
      "matrix": [
        1.0,
        0.0,
        0.0,
        0.0,
        0.0,
        1.0,
        0.0,
        0.0,
        0.0,
        0.0,
        1.0,
        0.0,
        0.012482055462896824,
        0.0,
        0.0,
        1.0
      ],
      "name": "GN_AK_Lv2_HypeBeast_Skelmesh.ao_25"
    },
    {
      "children": [
        7,
        9,
        10,
        11,
        12,
        8
      ],
      "name": "GLTF_created_0"
    },
    {
      "children": [
        13
      ],
      "name": "GLTF_created_0_rootJoint"
    },
    {
      "name": "GN_AK_Lv2_HypeBeast_Skelmesh.mo_24"
    },
    {
      "mesh": 1,
      "name": "Object_9",
      "skin": 0
    },
    {
      "mesh": 2,
      "name": "Object_10",
      "skin": 0
    },
    {
      "mesh": 3,
      "name": "Object_11",
      "skin": 0
    },
    {
      "mesh": 4,
      "name": "Object_12",
      "skin": 0
    },
    {
      "children": [
        14
      ],
      "name": "Skeleton_23",
      "rotation": [
        2.5121481026586963e-15,
        0.7071068286895752,
        8.429369557916289e-08,
        0.7071067094802856
      ],
      "scale": [
        1.0,
        0.9999999403953552,
        1.0
      ]
    },
    {
      "children": [
        15,
        16,
        17,
        18,
        19,
        20,
        21,
        22,
        23,
        24,
        25,
        26,
        27,
        28,
        29,
        30,
        31,
        32,
        33
      ],
      "name": "Root_22",
      "rotation": [
        3.5527141023169746e-15,
        -1.4823076576950256e-21,
        -1.7763559923673032e-15,
        1.0
      ],
      "translation": [
        -1.0587908685235133e-22,
        -1.4901161193847656e-08,
        -1.7763566276420137e-15
      ]
    },
    {
      "name": "Muzzle_3",
      "rotation": [
        -0.5000000596046448,
        -0.4999999403953552,
        -0.5000000596046448,
        0.4999999403953552
      ],
      "scale": [
        0.9999998807907104,
        0.9999997615814209,
        1.0
      ],
      "translation": [
        -1.8035943583072367e-07,
        0.08913809806108475,
        0.8821404576301575
      ]
    },
    {
      "name": "Ejection_4",
      "rotation": [
        0.29883623123168945,
        0.6408563852310181,
        0.704416036605835,
        0.061628565192222595
      ],
      "scale": [
        0.9999999403953552,
        0.9999998807907104,
        1.0000001192092896
      ],
      "translation": [
        -0.025911269709467888,
        0.10882797837257385,
        0.2499542236328125
      ]
    },
    {
      "name": "Rear_Slide_5",
      "rotation": [
        -1.2918938041193116e-15,
        8.127912565214501e-09,
        -8.39732200875326e-15,
        1.0
      ],
      "translation": [
        -1.7348760650293116e-08,
        0.07839780300855637,
        0.1409609466791153
      ]
    },
    {
      "name": "Bullet_6",
      "rotation": [
        -0.5,
        -0.4999999403953552,
        -0.5000001192092896,
        0.49999988079071045
      ],
      "scale": [
        1.0,
        0.9999998807907104,
        0.9999999403953552
      ],
      "translation": [
        -0.001964750699698925,
        0.08262279629707336,
        0.21969610452651978
      ]
    },
    {
      "name": "Underbarrel_7",
      "rotation": [
        -0.5,
        -0.5,
        -0.5000001192092896,
        0.49999988079071045
      ],
      "scale": [
        1.0,
        0.9999998807907104,
        0.9999999403953552
      ],
      "translation": [
        -9.355849783787562e-08,
        0.053387220948934555,
        0.44380560517311096
      ]
    },
    {
      "name": "Reflex_8",
      "rotation": [
        -0.5,
        -0.5,
        -0.5000000596046448,
        0.4999999403953552
      ],
      "scale": [
        1.0,
        0.9999998807907104,
        0.9999999403953552
      ],
      "translation": [
        -9.760321700014174e-05,
        0.1387571394443512,
        0.23021820187568665
      ]
    },
    {
      "name": "Magazine_Main_9",
      "rotation": [
        -0.5,
        -0.5000000596046448,
        -0.5000000596046448,
        0.4999999403953552
      ],
      "scale": [
        1.0,
        0.9999998807907104,
        0.9999999403953552
      ],
      "translation": [
        -7.448984717939311e-08,
        -0.06463280320167542,
        0.2828109860420227
      ]
    },
    {
      "name": "Charging_Handle_10",
      "rotation": [
        6.896900127964728e-16,
        -5.960463766996327e-08,
        -8.46656966757564e-09,
        1.0
      ],
      "translation": [
        0.03075733222067356,
        0.11755897849798203,
        0.29933443665504456
      ]
    },
    {
      "name": "Trigger_11",
      "rotation": [
        -1.2918946511522589e-15,
        8.127905459787144e-09,
        -1.2918954981852061e-15,
        1.0
      ],
      "translation": [
        -1.1895716411913781e-08,
        0.043762750923633575,
        0.08862410485744476
      ]
    },
    {
      "name": "Ejection_Button_12",
      "rotation": [
        -1.2918942276357852e-15,
        8.127912565214501e-09,
        -1.2918950746687325e-15,
        1.0
      ],
      "translation": [
        -3.609790510950006e-08,
        0.010481573641300201,
        0.1706419736146927
      ]
    },
    {
      "name": "Battery_13",
      "rotation": [
        -3.3866271564875206e-08,
        8.127900130716625e-09,
        -9.379724373505954e-15,
        1.0
      ],
      "translation": [
        3.1327840321893063e-10,
        0.09003913402557373,
        0.07094459980726242
      ]
    },
    {
      "name": "Rear_Panel_14",
      "rotation": [
        -1.2918938041193116e-15,
        8.127898354359786e-09,
        -1.9055464739220658e-14,
        1.0
      ],
      "translation": [
        -3.504710122115284e-08,
        0.07849214226007462,
        0.22057080268859863
      ]
    },
    {
      "name": "Rear_Lift_15",
      "rotation": [
        -3.3866271564875206e-08,
        8.127907236143983e-09,
        -2.2742968041467157e-15,
        1.0
      ],
      "translation": [
        -2.728426817810714e-09,
        0.07886085659265518,
        0.07563114911317825
      ]
    },
    {
      "name": "Front_Lift_16",
      "rotation": [
        6.352747104407253e-22,
        -5.9604641222676946e-08,
        -7.105425663535107e-15,
        1.0
      ],
      "translation": [
        -4.4264641729796494e-08,
        0.08073607832193375,
        0.2637964189052582
      ]
    },
    {
      "name": "Gun_Buddy_17",
      "rotation": [
        -0.4999999403953552,
        -0.5,
        -0.5000001192092896,
        0.49999988079071045
      ],
      "scale": [
        1.0,
        0.9999998807907104,
        0.9999999403953552
      ],
      "translation": [
        0.0367719903588295,
        0.07499529421329498,
        0.19841086864471436
      ]
    },
    {
      "name": "Front_Panel_18",
      "rotation": [
        6.352747104407253e-22,
        -5.960463766996327e-08,
        -7.105425663535107e-15,
        1.0
      ],
      "translation": [
        -1.0950653006602806e-07,
        0.1114024743437767,
        0.5816275477409363
      ]
    },
    {
      "name": "Rear_Lift_Extend_19",
      "rotation": [
        -1.2918946511522589e-15,
        8.127905459787144e-09,
        -1.2918954981852061e-15,
        1.0
      ],
      "translation": [
        4.449328017130938e-09,
        0.07886086404323578,
        0.043375253677368164
      ]
    },
    {
      "name": "Magazine_Extra_20",
      "rotation": [
        -0.5000000596046448,
        -0.4999999403953552,
        -0.5000000596046448,
        0.49999991059303284
      ],
      "scale": [
        1.0,
        0.9999998807907104,
        0.9999999403953552
      ],
      "translation": [
        1.0442205677918537e-07,
        -0.2028244584798813,
        -0.6322423219680786
      ]
    },
    {
      "name": "Left_Hand_Target_21",
      "rotation": [
        6.352747104407253e-22,
        -5.9604641222676946e-08,
        -7.105425663535107e-15,
        1.0
      ],
      "translation": [
        -9.85266694897291e-08,
        0.053387224674224854,
        0.46613186597824097
      ]
    }
  ],
  "samplers": [
    {
      "magFilter": 9729,
      "minFilter": 9987,
      "wrapS": 10497,
      "wrapT": 10497
    }
  ],
  "scene": 0,
  "scenes": [
    {
      "name": "Sketchfab_Scene",
      "nodes": [
        0
      ]
    }
  ],
  "skins": [
    {
      "inverseBindMatrices": 24,
      "joints": [
        7,
        13,
        14,
        15,
        16,
        17,
        18,
        19,
        20,
        21,
        22,
        23,
        24,
        25,
        26,
        27,
        28,
        29,
        30,
        31,
        32,
        33
      ],
      "skeleton": 7
    }
  ],
  "textures": [
    {
      "sampler": 0,
      "source": 0
    },
    {
      "sampler": 0,
      "source": 1
    },
    {
      "sampler": 0,
      "source": 2
    },
    {
      "sampler": 0,
      "source": 3
    }
  ]
}
