{
  "accessors": [
    {
      "bufferView": 2,
      "componentType": 5126,
      "count": 10141,
      "max": [
        1.2483705282211304,
        1.3623448610305786,
        0.22631433606147766
      ],
      "min": [
        -1.246802806854248,
        -1.247764229774475,
        -0.20639479160308838
      ],
      "type": "VEC3"
    },
    {
      "bufferView": 2,
      "byteOffset": 121692,
      "componentType": 5126,
      "count": 10141,
      "max": [
        0.9995433688163757,
        1.0,
        1.0
      ],
      "min": [
        -0.9995434284210205,
        -1.0,
        -1.0
      ],
      "type": "VEC3"
    },
    {
      "bufferView": 3,
      "componentType": 5126,
      "count": 10141,
      "max": [
        0.9705066680908203,
        0.9381685853004456,
        1.0,
        1.0
      ],
      "min": [
        -0.9820493459701538,
        -0.9999823570251465,
        -1.0,
        -1.0
      ],
      "type": "VEC4"
    },
    {
      "bufferView": 1,
      "componentType": 5126,
      "count": 10141,
      "max": [
        0.9944686889648438,
        0.8594516515731812
      ],
      "min": [
        0.005524968262761831,
        0.005523413419723511
      ],
      "type": "VEC2"
    },
    {
      "bufferView": 0,
      "componentType": 5125,
      "count": 55545,
      "type": "SCALAR"
    }
  ],
  "asset": {
    "extras": {
      "author": "lamborado (https://sketchfab.com/lamborado)",
      "license": "CC-BY-4.0 (http://creativecommons.org/licenses/by/4.0/)",
      "source": "https://sketchfab.com/3d-models/diamond-7f6b448f539b4312aeb152ca3e3d6ba2",
      "title": "Diamond"
    },
    "generator": "Sketchfab-14.40.0",
    "version": "2.0"
  },
  "bufferViews": [
    {
      "buffer": 0,
      "byteLength": 222180,
      "name": "floatBufferViews",
      "target": 34963
    },
    {
      "buffer": 0,
      "byteLength": 81128,
      "byteOffset": 222180,
      "byteStride": 8,
      "name": "floatBufferViews",
      "target": 34962
    },
    {
      "buffer": 0,
      "byteLength": 243384,
      "byteOffset": 303308,
      "byteStride": 12,
      "name": "floatBufferViews",
      "target": 34962
    },
    {
      "buffer": 0,
      "byteLength": 162256,
      "byteOffset": 546692,
      "byteStride": 16,
      "name": "floatBufferViews",
      "target": 34962
    }
  ],
  "buffers": [
    {
      "byteLength": 708948,
      "uri": "scene.bin"
    }
  ],
  "images": [
    {
      "uri": "textures/Diamond_baseColor.png"
    },
    {
      "uri": "textures/Diamond_metallicRoughness.png"
    },
    {
      "uri": "textures/Diamond_normal.png"
    }
  ],
  "materials": [
    {
      "doubleSided": true,
      "name": "Diamond",
      "normalTexture": {
        "index": 2
      },
      "pbrMetallicRoughness": {
        "baseColorTexture": {
          "index": 0
        },
        "metallicRoughnessTexture": {
          "index": 1
        }
      }
    }
  ],
  "meshes": [
    {
      "name": "Diamond.001_Diamond_0",
      "primitives": [
        {
          "attributes": {
            "NORMAL": 1,
            "POSITION": 0,
            "TANGENT": 2,
            "TEXCOORD_0": 3
          },
          "indices": 4,
          "material": 0,
          "mode": 4
        }
      ]
    }
  ],
  "nodes": [
    {
      "children": [
        1
      ],
      "matrix": [
        1.0,
        0.0,
        0.0,
        0.0,
        0.0,
        2.220446049250313e-16,
        -1.0,
        0.0,
        0.0,
        1.0,
        2.220446049250313e-16,
        0.0,
        0.0,
        0.0,
        0.0,
        1.0
      ],
      "name": "Sketchfab_model"
    },
    {
      "children": [
        2
      ],
      "matrix": [
        0.009999999776482582,
        0.0,
        0.0,
        0.0,
        0.0,
        0.0,
        0.009999999776482582,
        0.0,
        0.0,
        -0.009999999776482582,
        0.0,
        0.0,
        0.0,
        0.0,
        0.0,
        1.0
      ],
      "name": "Diamond.fbx"
    },
    {
      "children": [
        3
      ],
      "name": "RootNode"
    },
    {
      "children": [
        4
      ],
      "matrix": [
        100.0,
        0.0,
        0.0,
        0.0,
        -0.0,
        -1.629206793918314e-05,
        -99.99999999999868,
        0.0,
        0.0,
        99.99999999999868,
        -1.629206793918314e-05,
        0.0,
        -716.74755859375,
        -105.00028991699219,
        130.885009765625,
        1.0
      ],
      "name": "Diamond.001"
    },
    {
      "mesh": 0,
      "name": "Diamond.001_Diamond_0"
    }
  ],
  "samplers": [
    {
      "magFilter": 9729,
      "minFilter": 9987,
      "wrapS": 10497,
      "wrapT": 10497
    }
  ],
  "scene": 0,
  "scenes": [
    {
      "name": "Sketchfab_Scene",
      "nodes": [
        0
      ]
    }
  ],
  "textures": [
    {
      "sampler": 0,
      "source": 0
    },
    {
      "sampler": 0,
      "source": 1
    },
    {
      "sampler": 0,
      "source": 2
    }
  ]
}
